<svg width="923" height="289" viewBox="0 0 923 289" fill="none" xmlns="http://www.w3.org/2000/svg">
<g clip-path="url(#clip0)">
<rect width="923" height="289" fill="white"/>
<path d="M169.865 52.4714H159.656V85.2814V97.2851H197V79.413C197 64.4751 184.91 52.4714 169.865 52.4714Z" fill="#ECC31C"/>
<path d="M126.075 37C125.269 37 124.463 37 123.657 37H102.433C75.03 37 53 58.8733 53 86.0816V91.4166L58.1045 94.3508C87.9256 110.889 106.463 143.699 106.463 179.977C106.463 182.378 106.463 184.778 106.194 186.912C105.926 189.313 105.657 191.981 105.388 194.648V194.915C105.12 196.515 104.851 198.116 104.582 199.716C130.642 198.383 151.329 177.043 151.329 150.901V118.892V97.2851V53.8051C151.329 52.2046 150.792 37 126.075 37Z" fill="#3F8D42"/>
<path d="M53 103.42V199.183V256C63.4777 250.132 72.3434 242.129 79.5972 231.993C87.3883 220.789 92.7615 207.452 94.9107 192.781C94.9107 192.781 94.9107 192.781 94.9107 192.514C95.1794 190.38 95.448 187.979 95.7167 185.579C95.7167 183.445 95.9853 181.577 95.9853 179.443C95.7167 146.367 78.2539 117.291 53 103.42Z" fill="#3F8D42"/>
<path d="M289.76 129.44V100.48H304.48C314.08 100.48 320.64 105.92 320.64 115.04C320.64 123.84 314.08 129.44 304.48 129.44H289.76ZM307.04 151.2C330.08 151.2 345.92 136.32 345.92 114.88C345.92 93.76 330.08 78.56 307.04 78.56H264.32V192H289.6V151.2H307.04ZM392.95 172C383.83 172 375.03 165.44 375.03 152.16C375.03 138.72 383.83 132.48 392.95 132.48C402.23 132.48 410.87 138.72 410.87 152.16C410.87 165.6 402.23 172 392.95 172ZM392.95 110.08C369.27 110.08 350.71 127.52 350.71 152.16C350.71 176.8 369.27 194.4 392.95 194.4C416.79 194.4 435.19 176.8 435.19 152.16C435.19 127.52 416.79 110.08 392.95 110.08ZM475.165 192V76.16H450.845V192H475.165ZM520.946 192V76.16H496.626V192H520.946ZM573.608 222.56L622.568 112.48H596.808L579.208 155.04L559.848 112.48H532.648L566.088 181.28L548.008 222.56H573.608ZM625.245 196.48C627.485 210.72 642.045 224.8 664.925 224.8C694.685 224.8 707.485 204.96 707.485 182.08V112.48H684.285V120.96C682.045 116.8 675.165 111.04 662.205 111.04C640.445 111.04 625.245 128.96 625.245 149.92C625.245 172 641.085 188.64 662.205 188.64C673.725 188.64 680.605 184 683.485 179.68V183.36C683.485 197.76 675.965 203.68 663.805 203.68C654.685 203.68 648.285 198.08 646.685 190.4L625.245 196.48ZM666.685 167.52C656.925 167.52 649.565 160.8 649.565 149.92C649.565 139.04 657.565 132.32 666.685 132.32C675.805 132.32 683.645 139.04 683.645 149.92C683.645 160.8 676.605 167.52 666.685 167.52ZM764.513 172C755.393 172 746.593 165.44 746.593 152.16C746.593 138.72 755.393 132.48 764.513 132.48C773.793 132.48 782.433 138.72 782.433 152.16C782.433 165.6 773.793 172 764.513 172ZM764.513 110.08C740.832 110.08 722.273 127.52 722.273 152.16C722.273 176.8 740.832 194.4 764.513 194.4C788.353 194.4 806.753 176.8 806.753 152.16C806.753 127.52 788.353 110.08 764.513 110.08ZM851.371 89.28H829.611V99.52C829.611 106.88 825.611 112.48 817.291 112.48H813.291V133.76H827.371V167.84C827.371 183.68 837.451 193.44 853.931 193.44C861.611 193.44 865.611 191.68 866.571 191.2V171.04C865.131 171.36 862.731 171.84 860.171 171.84C854.891 171.84 851.371 170.08 851.371 163.52V133.76H866.891V112.48H851.371V89.28Z" fill="#333333"/>
</g>
<defs>
<clipPath id="clip0">
<rect width="923" height="289" fill="white"/>
</clipPath>
</defs>
</svg>
